<?xml version="1.0" encoding="UTF-8"?><svg id="Layer_1" xmlns="http://www.w3.org/2000/svg" viewBox="0 0 180 80"><defs><style>.cls-1{fill:#231f20;}</style></defs><g><polygon points="40.29 6.77 7.25 6.77 7.25 15.79 19.02 15.79 19.02 73.23 28.52 73.23 28.52 15.79 40.29 15.79 40.29 6.77"/><polygon points="65.93 73.23 75.43 73.23 60.9 6.77 52.54 6.77 38.01 73.23 47.51 73.23 56.53 25.28 65.93 73.23"/><polygon points="125.82 73.23 135.32 73.23 120.79 6.77 112.43 6.77 97.9 73.23 107.4 73.23 116.42 25.28 125.82 73.23"/><rect x="82.07" y="31.14" width="9.5" height="42.1"/></g><circle cx="86.82" cy="14.34" r="7.57"/><path d="M86.82,38.97c-9.95,0-18.04-8.09-18.04-18.04h8c0,5.54,4.51,10.04,10.04,10.04s10.04-4.51,10.04-10.04h8c0,9.95-8.09,18.04-18.04,18.04Z"/><path class="cls-1" d="M139.52,24.24c0-5.03,.38-9.88,4.94-14.15,2.85-2.66,6.74-4.27,11.68-4.27s8.83,1.61,11.68,4.27c4.56,4.27,4.94,9.12,4.94,14.15v31.53c0,5.03-.38,9.88-4.94,14.15-2.85,2.66-6.74,4.27-11.68,4.27s-8.83-1.61-11.68-4.27c-4.56-4.27-4.94-9.12-4.94-14.15V24.24Zm23.74-1.42c0-1.99-.19-3.99-1.99-5.79-1.04-1.04-2.75-1.9-5.13-1.9s-4.08,.85-5.13,1.9c-1.8,1.8-1.99,3.8-1.99,5.79V57.19c0,1.99,.19,3.99,1.99,5.79,1.04,1.04,2.75,1.9,5.13,1.9s4.08-.85,5.13-1.9c1.8-1.8,1.99-3.8,1.99-5.79V22.81Z"/></svg>